<!-- icon666.com - MILLIONS OF FREE VECTOR ICONS --><svg id="colored_line" viewBox="0 0 16 16" xmlns="http://www.w3.org/2000/svg"><g><g><path d="m4.17 16c-.668 0-1.296-.26-1.768-.732l-1.672-1.671c-.975-.975-.975-2.561 0-3.536l3.086-3.085c.195-.195.512-.195.707 0s.195.512 0 .707l-3.086 3.085c-.585.585-.585 1.537 0 2.122l1.672 1.671c.565.567 1.554.567 2.121 0l3.086-3.085c.195-.195.512-.195.707 0s.195.512 0 .707l-3.086 3.085c-.472.472-1.1.732-1.767.732z" fill="#1689fc"></path></g><g><path d="m11.83 9.147c-.128 0-.256-.049-.354-.146-.195-.195-.195-.512 0-.707l3.086-3.085c.585-.585.585-1.537 0-2.122l-1.672-1.672c-.565-.567-1.555-.567-2.121 0l-3.086 3.085c-.195.195-.512.195-.707 0s-.195-.512 0-.707l3.086-3.085c.946-.945 2.593-.943 3.535 0l1.672 1.671c.975.975.975 2.561 0 3.536l-3.086 3.085c-.098.098-.225.147-.353.147z" fill="#1689fc"></path></g><g><path d="m12.5 13c-.128 0-.256-.049-.354-.146l-1-1c-.195-.195-.195-.512 0-.707s.512-.195.707 0l1 1c.195.195.195.512 0 .707-.097.097-.225.146-.353.146z" fill="#3e5959"></path></g><g><path d="m14.5 11h-1c-.276 0-.5-.224-.5-.5s.224-.5.5-.5h1c.276 0 .5.224.5.5s-.224.5-.5.5z" fill="#3e5959"></path></g><g><path d="m10.5 15c-.276 0-.5-.224-.5-.5v-1c0-.276.224-.5.5-.5s.5.224.5.5v1c0 .276-.224.5-.5.5z" fill="#3e5959"></path></g><g><path d="m5.5 3c-.276 0-.5-.224-.5-.5v-1c0-.276.224-.5.5-.5s.5.224.5.5v1c0 .276-.224.5-.5.5z" fill="#3e5959"></path></g><g><path d="m4.5 5c-.128 0-.256-.049-.354-.146l-1-1c-.195-.195-.195-.512 0-.707s.512-.195.707 0l1 1c.195.195.195.512 0 .707-.097.097-.225.146-.353.146z" fill="#3e5959"></path></g><g><path d="m2.5 6h-1c-.276 0-.5-.224-.5-.5s.224-.5.5-.5h1c.276 0 .5.224.5.5s-.224.5-.5.5z" fill="#3e5959"></path></g><g><path d="m5.5 11c-.128 0-.256-.049-.354-.146-.195-.195-.195-.512 0-.707l5-5c.195-.195.512-.195.707 0s.195.512 0 .707l-5 5c-.097.097-.225.146-.353.146z" fill="#3e5959"></path></g></g></svg>